<svg width="25" height="26" viewBox="0 0 25 26" fill="none" xmlns="http://www.w3.org/2000/svg">
<path d="M12.5 16.6C14.4055 16.6 15.95 14.9883 15.95 13C15.95 11.0117 14.4055 9.39999 12.5 9.39999C10.5946 9.39999 9.05005 11.0117 9.05005 13C9.05005 14.9883 10.5946 16.6 12.5 16.6Z" stroke="white" stroke-linecap="round" stroke-linejoin="round"/>
<path d="M21.2658 11.0745L20.0034 7.89376L21.7 5.8L19.4 3.4L17.4044 5.17954L14.2915 3.84369L13.5756 1H11.3281L10.6015 3.88136L7.56007 5.21915L5.6 3.4L3.3 5.8L4.97138 7.94662L3.72837 11.1356L1 11.8V14.2L3.76128 14.9866L5.04311 18.1596L3.3 20.2L5.6 22.6L7.65983 20.8484L10.6566 22.1348L11.35 25H13.65L14.3452 22.1358L17.3934 20.8186C17.9014 21.1976 19.4 22.6 19.4 22.6L21.7 20.2L19.9933 18.0993L21.256 14.9176L23.9999 14.1726L24 11.8L21.2658 11.0745Z" stroke="white" stroke-linecap="round" stroke-linejoin="round"/>
</svg>
