<svg width="15" height="15" viewBox="0 0 15 15" fill="none" xmlns="http://www.w3.org/2000/svg">
<path d="M10.297 9.5815C11.1331 8.56828 11.6612 7.26872 11.6612 5.837C11.6612 2.62115 9.0429 0 5.83058 0C2.61826 0 0 2.62115 0 5.837C0 9.05286 2.61826 11.674 5.83058 11.674C7.23872 11.674 8.55886 11.1674 9.57096 10.3084L14.1034 14.8458C14.2134 14.9559 14.3454 15 14.4774 15C14.6095 15 14.7415 14.9559 14.8515 14.8458C15.0495 14.6476 15.0495 14.2952 14.8515 14.0969L10.297 9.5815ZM5.80858 10.6167C3.16832 10.6167 1.0341 8.48018 1.0341 5.837C1.0341 3.19383 3.16832 1.05727 5.80858 1.05727C8.44884 1.05727 10.5831 3.19383 10.5831 5.837C10.5831 8.48018 8.44884 10.6167 5.80858 10.6167Z" fill="#959595"/>
</svg>
