<svg width="17" height="30" viewBox="0 0 17 30" fill="none" xmlns="http://www.w3.org/2000/svg">
<path d="M13.4866 12.707L10.8138 21.2596H5.6275L2.95479 12.707C2.19266 10.2681 2.6767 7.61059 4.24973 5.5971L7.60764 1.299C7.91908 0.900332 8.52225 0.900332 8.83368 1.299L12.1916 5.5971C13.7646 7.61059 14.2486 10.2681 13.4866 12.707Z" stroke="white" stroke-linecap="round" stroke-linejoin="round"/>
<path d="M5.6272 25.1494C5.6272 27.7425 8.22036 29.0391 8.22036 29.0391C8.22036 29.0391 10.8135 27.7425 10.8135 25.1494" stroke="white" stroke-linecap="round" stroke-linejoin="round"/>
<path d="M3.68248 15.425C-0.855551 18.6664 1.73761 23.8528 1.73761 23.8528L5.62735 21.2596" stroke="white" stroke-linecap="round" stroke-linejoin="round"/>
<path d="M13.3174 15.425C17.8555 18.6664 15.2623 23.8528 15.2623 23.8528L11.3726 21.2596" stroke="white" stroke-linecap="round" stroke-linejoin="round"/>
<path d="M8.22036 13.4801C6.78816 13.4801 5.6272 12.3192 5.6272 10.887C5.6272 9.45479 6.78816 8.29379 8.22036 8.29379C9.65256 8.29379 10.8135 9.45479 10.8135 10.887C10.8135 12.3192 9.65256 13.4801 8.22036 13.4801Z" stroke="white" stroke-linecap="round" stroke-linejoin="round"/>
</svg>
