<svg width="20" height="19" viewBox="0 0 20 19" fill="none" xmlns="http://www.w3.org/2000/svg">
<path d="M5.49995 12.7C6.49406 12.7 7.29995 11.8941 7.29995 10.9C7.29995 9.90585 6.49406 9.09999 5.49995 9.09999C4.50584 9.09999 3.69995 9.90585 3.69995 10.9C3.69995 11.8941 4.50584 12.7 5.49995 12.7Z" stroke="white" stroke-miterlimit="1.5" stroke-linecap="round" stroke-linejoin="round"/>
<path d="M14.5 12.7C15.4941 12.7 16.3 11.8941 16.3 10.9C16.3 9.90585 15.4941 9.09999 14.5 9.09999C13.5058 9.09999 12.7 9.90585 12.7 10.9C12.7 11.8941 13.5058 12.7 14.5 12.7Z" stroke="white" stroke-miterlimit="1.5" stroke-linecap="round" stroke-linejoin="round"/>
<path d="M11.8 10.9V1.54C11.8 1.24177 11.5583 1 11.26 1H1.54C1.24177 1 1 1.24177 1 1.54V10.36C1 10.6583 1.24177 10.9 1.54 10.9H3.385" stroke="white" stroke-linecap="round"/>
<path d="M11.8002 10.9H7.34521" stroke="white" stroke-linecap="round"/>
<path d="M11.8 3.7H16.8491C17.0625 3.7 17.2559 3.82567 17.3426 4.02068L18.9535 7.64524C18.9842 7.71436 19 7.78906 19 7.86457V10.36C19 10.6583 18.7583 10.9 18.46 10.9H16.75" stroke="white" stroke-linecap="round"/>
<path d="M11.8 10.9H12.7" stroke="white" stroke-linecap="round"/>
<path d="M1.90015 16.3H17.8751M1.90015 16.3L3.47515 17.875M1.90015 16.3L3.47515 14.725M17.8751 16.3L16.3001 17.875M17.8751 16.3L16.3001 14.725" stroke="white" stroke-linecap="round" stroke-linejoin="round"/>
</svg>
