<svg width="20" height="19" viewBox="0 0 20 19" fill="none" xmlns="http://www.w3.org/2000/svg">
<path d="M5.34766 6.21725H12.304" stroke="white" stroke-linecap="round" stroke-linejoin="round"/>
<path d="M4.47803 9.69542H5.34757" stroke="white" stroke-linecap="round" stroke-linejoin="round"/>
<path d="M12.3042 9.69542H13.1737" stroke="white" stroke-linecap="round" stroke-linejoin="round"/>
<path d="M4.47817 13.1736H1V15.2605C1 15.5487 1.23359 15.7822 1.52173 15.7822H3.95644C4.24459 15.7822 4.47817 15.5487 4.47817 15.2605V13.1736ZM4.47817 13.1736H10.565" stroke="white" stroke-linecap="round"/>
<path d="M1 13.1736V7.44375C1 7.20827 1.04784 6.97515 1.14061 6.75872L3.1569 2.05402C3.43095 1.41459 4.05969 1 4.75537 1H12.8964C13.5921 1 14.2208 1.41459 14.4949 2.05402L16.5112 6.75872C16.6039 6.97515 16.6518 7.20827 16.6518 7.44375V8.39111" stroke="white" stroke-linecap="round"/>
<path d="M14.0432 17.5213C14.0432 17.5213 14.8258 14.8104 16.6518 13.1736" stroke="white" stroke-linecap="round" stroke-linejoin="round"/>
<path d="M16.4799 16.1513L16.363 16.1624C14.8918 16.3006 13.5816 15.2206 13.4365 13.7501C13.2914 12.2796 14.3663 10.9755 15.8375 10.8372L18.4336 10.5933C18.6002 10.5777 18.7485 10.6999 18.7649 10.8664L18.9864 13.1106C19.1379 14.6456 18.0156 16.0071 16.4799 16.1513Z" stroke="white" stroke-linecap="round" stroke-linejoin="round"/>
</svg>
